<?xml version="1.0" encoding="utf-8"?>
<!-- Generator: Adobe Illustrator 22.0.1, SVG Export Plug-In . SVG Version: 6.00 Build 0)  -->
<svg version="1.1" id="Layer_1" xmlns="http://www.w3.org/2000/svg" xmlns:xlink="http://www.w3.org/1999/xlink" x="0px" y="0px"
	 viewBox="0 0 1366 768" style="enable-background:new 0 0 1366 768;" xml:space="preserve">
<style type="text/css">
	.st0{stroke:#000000;stroke-miterlimit:10;}
	.st1{fill:none;stroke:#000000;stroke-width:2;stroke-miterlimit:10;}
</style>
<path d="M713.7,416h-61.3c-0.7,0-1.3-0.6-1.3-1.3v-0.8c0-0.7,0.6-1.3,1.3-1.3h61.3c0.7,0,1.3,0.6,1.3,1.3v0.8
	C715,415.4,714.4,416,713.7,416z"/>
<path d="M656,413.7v-28.4c0-0.7,0.6-1.3,1.3-1.3h1.2c0.7,0,1.3,0.6,1.3,1.3v28.4c0,0.7-0.6,1.3-1.3,1.3h-1.2
	C656.6,415.1,656,414.5,656,413.7z"/>
<circle cx="672.1" cy="399.8" r="1.9"/>
<path d="M675.1,413.7v-28.4c0-0.7,0.6-1.3,1.3-1.3h1.2c0.7,0,1.3,0.6,1.3,1.3v28.4c0,0.7-0.6,1.3-1.3,1.3h-1.2
	C675.7,415.1,675.1,414.5,675.1,413.7z"/>
<path d="M706.1,412.1v-33c0-0.7,0.6-1.3,1.3-1.3h1.2c0.7,0,1.3,0.6,1.3,1.3v33c0,0.7-0.6,1.3-1.3,1.3h-1.2
	C706.7,413.4,706.1,412.8,706.1,412.1z"/>
<path d="M706.7,413.4h-28.4c-0.7,0-1.3-0.6-1.3-1.3v-4.6c0-0.7,0.6-1.3,1.3-1.3h28.4c0.7,0,1.3,0.6,1.3,1.3v4.6
	C708,412.8,707.4,413.4,706.7,413.4z"/>
<path d="M686.2,401.2l7.6-15.1c0.3-0.7,1.1-0.9,1.8-0.6l1.1,0.5c0.7,0.3,0.9,1.1,0.6,1.8l-7.6,15.1c-0.3,0.7-1.1,0.9-1.8,0.6
	l-1.1-0.5C686.2,402.7,685.9,401.9,686.2,401.2z"/>
<path d="M695,397.7l4-7.8c0.3-0.7,1.1-0.9,1.8-0.6l1.1,0.5c0.7,0.3,0.9,1.1,0.6,1.8l-4,7.8c-0.3,0.7-1.1,0.9-1.8,0.6l-1.1-0.5
	C694.9,399.2,694.6,398.4,695,397.7z"/>
<path d="M707.9,355.4h-50.6c-0.7,0-1.3-0.6-1.3-1.3v-1.5c0-0.7,0.6-1.3,1.3-1.3h50.6c0.7,0,1.3,0.6,1.3,1.3v1.5
	C709.3,354.8,708.7,355.4,707.9,355.4z"/>
<path d="M656.1,354.7l-4.3,21.1c0,0,1.4,3.6,6.1,5.2c0,0,5.6-0.4,6.9-2.8s1.2-2.9,1.2-2.9l1.6-19.9L656.1,354.7z"/>
<path class="st0" d="M682.8,381.8L682.8,381.8c-3.7,0-6.7-3-6.7-6.7v-16.4c0-3.7,3-6.7,6.7-6.7l0,0c3.7,0,6.7,3,6.7,6.7v16.4
	C689.5,378.7,686.5,381.8,682.8,381.8z"/>
<path d="M709.2,354.2l4.3,21.1c0,0-1.4,3.6-6.1,5.2c0,0-5.6-0.4-6.9-2.8s-1.2-2.9-1.2-2.9l-1.6-19.9L709.2,354.2z"/>
<path class="st1" d="M664,377.8c0,0,7.3,6.1,13.1,0"/>
<path class="st1" d="M687.7,377.5c0,0,7.3,6.1,13,0"/>
</svg>
