<svg id="Layer_1" data-name="Layer 1" xmlns="http://www.w3.org/2000/svg" viewBox="0 0 241.77 91.46"><defs><style>.cls-1{fill:#ffffff;fill-rule:evenodd;}</style></defs><title>logo-white</title><path class="cls-1" d="M120.24,92.14a3,3,0,0,0,4,.79c3-1.59,3.25-4.53,3.38-7.36a29.33,29.33,0,0,1-4.43.71c-4.76.08-7.32-2.65-7.42-7.91,0-2.62.17-5.24.26-7.86,0-.82,0-1.65,0-2.68a5,5,0,0,1-1.75.23,8,8,0,0,1-1.68-1c.38-.56.66-1.47,1.14-1.59a22.25,22.25,0,0,1,4.61-.63c1.36-.06,1.38,1.1,1.35,2-.07,3-.34,5.91-.27,8.86a19.45,19.45,0,0,0,.92,5.57,3.19,3.19,0,0,0,5.85.85,8.61,8.61,0,0,0,1.46-4.66c-.07-3.48-.69-7-.91-10.43,0-.84.62-1.72,1-2.58.77.42,2,.69,2.22,1.31a20.28,20.28,0,0,1,1.4,6.13c.1,5.12,0,10.27-.31,15.38-.26,4.66-2.76,7.82-6.48,8.48-2.83.49-5.54,0-7.48-2.28a5.2,5.2,0,0,1-1.1-3.31,2.8,2.8,0,0,1,1.75-2,3.47,3.47,0,0,1,2.79.79c.44.42.12,1.67.09,2.55C120.54,91.71,120.36,91.9,120.24,92.14Z" transform="translate(-3.59 -4.51)"/><path class="cls-1" d="M201.17,67.84a4.36,4.36,0,0,1-1.63.21c-.59-.16-1.39-.54-1.55-1a1.8,1.8,0,0,1,.86-1.53,19,19,0,0,1,5.23-.53,3.56,3.56,0,0,0,2-.19,6.69,6.69,0,0,1,7.37,1c5.12,3.93,5.94,12.92,1.65,17.76-2.49,2.82-5.55,3.51-9.09,2.44l-1.19-.35c.17,2.53.32,4.88.48,7.35a6.54,6.54,0,0,1,2.13.16,2.47,2.47,0,0,1,1.32,1.42c.07.35-.81,1.3-1.2,1.26-2.92-.28-5.82-.7-8.72-1.2-.34-.06-.89-1-.78-1.18a2.36,2.36,0,0,1,1.32-1,5,5,0,0,1,1.76.18Zm3.36,8.67.17.07c.14,1.16.19,2.33.44,3.47a4.34,4.34,0,0,0,3.61,3.68c1.7.2,3.27-.71,4.2-2.71a12.53,12.53,0,0,0-.62-12,3.55,3.55,0,0,0-3.39-2.08,3.37,3.37,0,0,0-3,2.74C205.31,71.91,205,74.22,204.53,76.51Z" transform="translate(-3.59 -4.51)"/><path class="cls-1" d="M156.1,56.47c-1.46,0-3-.06-4.63.06-.26,0-.64.84-.66,1.3-.16,3.29-.37,6.58-.31,9.87.08,4.57.4,9.13.57,13.71,0,1,.33,1.57,1.42,1.63a2.57,2.57,0,0,1,1.43.41A11.67,11.67,0,0,1,155.38,85c-.59.44-1.16,1.23-1.77,1.26-3.12.12-6.25.12-9.37,0-.6,0-1.17-.84-1.75-1.29.51-.5.93-1.24,1.54-1.46,2.71-1,2.89-.91,2.94-3.79.12-7.37.1-14.74.11-22.11,0-.36-.22-1-.33-1-1.76,0-3.52.08-5.27.26-.17,0-.3.88-.36,1.37-.09.71.18,1.64-.18,2.11a3.53,3.53,0,0,1-2.19,1.33c-1.12.1-1.57-.88-1.58-2a23.78,23.78,0,0,0,0-2.8c-.17-1.48.4-2.52,1.8-2.75a54.23,54.23,0,0,1,7.29-.83c3.56-.1,7.14,0,10.72.12,2.3.05,3.31,1.24,3.18,3.54a15.42,15.42,0,0,1-.16,3.13c-.17.65-.93,1.61-1.43,1.61a2.72,2.72,0,0,1-2.18-1.16A16.45,16.45,0,0,1,156.1,56.47Z" transform="translate(-3.59 -4.51)"/><path class="cls-1" d="M86.66,65.41c.93-.75,1.54-1.63,2.25-1.72,1.22-.17,2,.82,2,2,.2,4.22.31,8.44.43,12.67,0,1.43,0,2.87,0,4.32a8.49,8.49,0,0,1,2.11,0,1.87,1.87,0,0,1,1.11,1c.12.34-.21,1-.53,1.26-1.3,1.22-5.65,1.42-7.06.41-4.41,2.21-8.24,1.42-11.31-2.33a12.08,12.08,0,0,1-.31-14.88C78.4,64.19,82.24,63.33,86.66,65.41Zm-9.9,9.29c0,3.35,1.15,6.31,2.85,7.92s3.69,1.71,5.45,0c3.47-3.41,3.47-10.82,0-14.22a3.49,3.49,0,0,0-5.32-.09A9.56,9.56,0,0,0,76.76,74.7Z" transform="translate(-3.59 -4.51)"/><path class="cls-1" d="M53.74,83.24v-26a8.54,8.54,0,0,1-2.18.19,6.32,6.32,0,0,1-1.68-.92,9.27,9.27,0,0,1,1.33-1.69,2.78,2.78,0,0,1,1.45-.33c2.5-.19,5-.35,7.51-.54,1.11-.08,2.24.19,2.27,1.39S61.34,57,60.25,56.8c-1.5-.21-2,.58-2.1,1.87-.2,5.07-.43,10.14-.5,15.22,0,2.72.23,5.46.28,8.19,0,1.11.34,1.61,1.55,1.57,2.35-.08,4.69,0,7,0,1.45,0,2.09-.68,2.17-2.14a11.59,11.59,0,0,1,.6-3.09,1.77,1.77,0,0,1,2.6-1c.52.28.76,1.43.77,2.19a12.26,12.26,0,0,1-.55,3c-.69,2.77-1.8,4-4.59,4-5,0-9.91-.39-14.86-.68a5.1,5.1,0,0,1-2.19-.74c-.38-.22-.85-1-.73-1.23a2,2,0,0,1,1.37-.95A12.73,12.73,0,0,1,53.74,83.24Z" transform="translate(-3.59 -4.51)"/><path class="cls-1" d="M174.61,83a6.69,6.69,0,0,1,1.93-.09,8.09,8.09,0,0,1,1.71,1c-.41.55-.74,1.46-1.23,1.56a45.66,45.66,0,0,1-5,.46,7.67,7.67,0,0,0-2.27.18c-4.67,1.92-9.53-.58-10.16-5.63A94.35,94.35,0,0,1,159.41,70c0-.61,0-1.21,0-1.92a7.39,7.39,0,0,1-2,0c-.51-.13-1.3-.6-1.32-1,0-.54.44-1.5.83-1.58A25.23,25.23,0,0,1,162.2,65c.36,0,1,1.27,1,2,0,3.46-.25,6.92-.25,10.38a15,15,0,0,0,.68,4.09,2.86,2.86,0,0,0,2.89,2.36,4.68,4.68,0,0,0,3.17-1.72,9.89,9.89,0,0,0,1.47-4.85c0-3.44-.43-6.89-.71-10.33-.09-1.14-.31-2.4,1.18-2.71a2.07,2.07,0,0,1,2.55,2c.33,4.27.46,8.55.62,12.83C174.84,80.29,174.69,81.51,174.61,83Z" transform="translate(-3.59 -4.51)"/><path class="cls-1" d="M107.1,67.89H99.69a12.26,12.26,0,0,1-.27,1.85c-.33,1.13-1.22,1.79-2.27,1.31a2.51,2.51,0,0,1-1.16-2c.33-3.5.42-3.68,4-3.94a55.09,55.09,0,0,1,9,.13c2.47.22,3,1.68,1.56,3.71-3,4.19-6.22,8.29-9.34,12.44-.36.47-.69,1-1.22,1.71h8.09c.09-.79.13-1.4.23-2a1.64,1.64,0,0,1,2-1.55c1.22.09,1.58.81,1.6,1.9,0,2.5-1.19,4.32-3.58,4.43a70.31,70.31,0,0,1-10.16-.25c-2.68-.28-3.24-1.7-1.64-3.94,2.74-3.8,5.67-7.45,8.53-11.17C105.66,69.75,106.26,69,107.1,67.89Z" transform="translate(-3.59 -4.51)"/><path class="cls-1" d="M181.76,83.45V60.73a6.52,6.52,0,0,1-1.58.12c-.53-.09-1.47-.42-1.47-.61,0-.64.27-1.69.68-1.82a15.63,15.63,0,0,1,4.53-.84c.48,0,1.39,1,1.43,1.65.2,2.66.16,5.34.19,8,.06,4.68.08,9.37.18,14.05,0,1.37.37,2.63,2.15,2.87.42,0,1.13.92,1,1.2-.17.53-.85,1.29-1.28,1.27a65.09,65.09,0,0,1-7.77-.76c-.51-.09-.83-1.31-1.23-2a19.67,19.67,0,0,1,2-.64A3.71,3.71,0,0,1,181.76,83.45Z" transform="translate(-3.59 -4.51)"/><path class="cls-1" d="M192.62,83.29V68a10,10,0,0,1-2.33,0,1.86,1.86,0,0,1-1.21-1.08,1.63,1.63,0,0,1,.83-1.36,21.14,21.14,0,0,1,4.92-.59c1.26,0,1.57,1.22,1.56,2.38,0,4.23,0,8.47,0,12.7,0,1,.09,2.09.15,3.29a5.28,5.28,0,0,1,1.6-.21c.54.09,1.4.36,1.47.68A2.3,2.3,0,0,1,199,85.5a2.23,2.23,0,0,1-1.5.63,52.21,52.21,0,0,1-6,0c-1.09-.09-2.37-.56-2.09-2.06s1.51-.89,2.46-.77C192,83.31,192.16,83.29,192.62,83.29Z" transform="translate(-3.59 -4.51)"/><path class="cls-1" d="M119.14,18a4.85,4.85,0,0,0-4.09-1.83,54.12,54.12,0,0,1-6.32-.73c-.31-.05-.59-.42-.87-.65a61.1,61.1,0,0,0-6.27-5.16c-3.67-2.3-7.88-3.31-12.11-4.1-6.77-1.28-13.7-1.87-20.09,1C54,13.39,43.44,24.49,40.47,41.63,39.58,46.78,39,52,38.49,57.2c-.47,4.59-.86,9.21-.93,13.83-.06,4.34.32,8.68.56,13a14.31,14.31,0,0,0,.5,2.39l.43-.07a4.63,4.63,0,0,0,.12-.9c-.28-4.89-1.07-9.81-.77-14.67.57-9.37,1.52-18.75,2.75-28.06A40.7,40.7,0,0,1,54.69,17c8.57-7.62,17.87-13.09,30-11.38,6.42.91,12.59,2.43,18.12,5.86a43,43,0,0,1,4.7,3.9c-1.45,1.2-2.46,2.46-3.77,3-4.65,2-5.64,7.48-5.15,10.86,0,.22.34.41.52.61-.13-1-.25-1.94-.37-2.91l.31-.05c.46,2,.93,4.08,1.39,6.12.26.66.54,1.31.78,2a73.9,73.9,0,0,1,2.51,7.39,21.72,21.72,0,0,1,.07,4.91h.43v-5l.4,0c.13,1.6.26,3.2.39,5,.65-.2,1.66-.22,2.16-.73,2-2,3.86-1,5.8-.08a12.47,12.47,0,0,1,1.78.92,11.9,11.9,0,0,1,1.39,1.37l3-4.52,2.53.94c.79-1.73,1.49-3.22,2.14-4.74a9.74,9.74,0,0,0,.74-2.21C125.75,30.63,123.62,24,119.14,18Zm-17.62,3.24c.27,2.54.57,5.28.87,8C101.54,26.6,100.69,23.9,101.52,21.28Zm5.19,21.44c-.37-1.81-.75-3.63-1.12-5.45A8.69,8.69,0,0,1,106.71,42.72Z" transform="translate(-3.59 -4.51)"/><path class="cls-1" d="M36,82.61a5.68,5.68,0,0,1-.61-.87C31.52,73,27.56,64.37,23.92,55.59c-2.2-5.29-2.73-11-3.2-16.68A43.69,43.69,0,0,0,19,29.62c-1-3.14-3.22-4-6.25-2.63a53,53,0,0,0-5.7,3.38L4,34l-.39-.22a27.59,27.59,0,0,1,1.92-3.46C9,25.86,13.38,23,19.12,22.44a7.26,7.26,0,0,1,7,3.06C30,30.68,32.19,36.64,34,42.72c1.43,4.79,2.26,9.75,3.33,14.63Z" transform="translate(-3.59 -4.51)"/><path class="cls-1" d="M227.9,95a11.29,11.29,0,0,0,.27-2.32c-.09-.74-.31-1.43-1.43-1.42s-1.36.64-1.45,1.42a13,13,0,0,0,.25,2.29l-2.31-.17c.49-1.22,1-2.29,1.35-3.39.61-1.72,1.18-3.46,1.77-5.19l.84,0,3,8.5Z" transform="translate(-3.59 -4.51)"/><path class="cls-1" d="M244.79,92.46c.92,1.42.68,2.37-.42,2.45-1.64.12-3.29,0-5.31,0,1.71-1.74,1.66-7.18.29-8.38a46.61,46.61,0,0,1,5.15-.07c.28,0,.85,1.53.6,2-.35.59-.93.25-.79-.57a4.09,4.09,0,0,0,0-.59c-2.88-.75-3.41-.25-2.87,2.59.73.11,1.46.23,2.2.33,0,.2,0,.4,0,.59l-2.54.22c.26,1.1.2,2.77.84,3.12C243,94.67,244.71,94.88,244.79,92.46Z" transform="translate(-3.59 -4.51)"/><path class="cls-1" d="M194.29,58.89a2.6,2.6,0,0,1,2.42,2.51,2.44,2.44,0,0,1-2.4,2.46,2.38,2.38,0,0,1-2.52-2.33A2.76,2.76,0,0,1,194.29,58.89Z" transform="translate(-3.59 -4.51)"/><path class="cls-1" d="M221.88,86.78c-.16,1.24-.31,2.36-.46,3.48l-.42.07a12.36,12.36,0,0,0-.46-1.91c-.2-.52-.53-1.31-.91-1.37a2.26,2.26,0,0,0-1.71.64c-1.31,1.35-1.47,4.56-.2,5.92a2.9,2.9,0,0,0,2.29.65c.64-.13,1.6-.82.61-1.85-.09-.09.17-.51.26-.78.3.2.84.4.84.58,0,.68,0,1.67-.4,2a2.87,2.87,0,0,1-4.82-.93,5.1,5.1,0,0,1-.05-5c.94-2,2.12-2.37,4.2-1.59A4.75,4.75,0,0,0,221.88,86.78Z" transform="translate(-3.59 -4.51)"/><path class="cls-1" d="M236.74,88.47c0-.37,0-.73.08-1.23H234v3a11,11,0,0,1,1.63,0,3,3,0,0,1,.85.49,2.86,2.86,0,0,1-.91.45,12.76,12.76,0,0,1-1.93-.1c.36,1.43.65,2.6,1,3.86l-2.85-.2c1.61-1.22,1.57-6.88.24-8.39,1.58,0,3.17-.07,4.74.06.39,0,.92.62,1.05,1.06s-.36.8-.58,1.21Z" transform="translate(-3.59 -4.51)"/></svg>