<?xml version="1.0" encoding="utf-8"?>
<!-- Generator: Adobe Illustrator 22.0.1, SVG Export Plug-In . SVG Version: 6.00 Build 0)  -->
<svg version="1.1" id="Layer_1" xmlns="http://www.w3.org/2000/svg" xmlns:xlink="http://www.w3.org/1999/xlink" x="0px" y="0px"
	 viewBox="0 0 1366 768" style="enable-background:new 0 0 1366 768;" xml:space="preserve">
<style type="text/css">
	.st0{fill:none;stroke:#964B00;stroke-miterlimit:10;}
	.st1{fill:#964B00;stroke:#964B00;stroke-miterlimit:10;}
</style>
<g>
	<circle class="st0" cx="683" cy="384" r="29.7"/>
	<path class="st1" d="M661.9,381.1l-2-0.6c-0.6-0.2-0.9-0.8-0.7-1.4v0c0.2-0.6,0.8-0.9,1.4-0.7l2,0.6c0.6,0.2,0.9,0.8,0.7,1.4l0,0
		C663.2,380.9,662.5,381.2,661.9,381.1z"/>
	<path class="st1" d="M663.5,376.4l-1.8-1c-0.5-0.3-0.8-1-0.5-1.5l0,0c0.3-0.5,1-0.8,1.5-0.5l1.8,1c0.5,0.3,0.8,1,0.5,1.5l0,0
		C664.8,376.5,664.1,376.7,663.5,376.4z"/>
	<path class="st1" d="M673.9,365.4l-0.9-1.9c-0.3-0.6,0-1.2,0.6-1.5l0,0c0.6-0.3,1.2,0,1.5,0.6l0.9,1.9c0.3,0.6,0,1.2-0.6,1.5l0,0
		C674.8,366.2,674.1,366,673.9,365.4z"/>
	<path class="st1" d="M669.6,368.1l-1.5-1.5c-0.4-0.4-0.4-1.2,0-1.6l0,0c0.4-0.4,1.2-0.4,1.6,0l1.5,1.5c0.4,0.4,0.4,1.2,0,1.6l0,0
		C670.7,368.6,670,368.6,669.6,368.1z"/>
	<path class="st1" d="M666.2,371.8l-1.8-1c-0.5-0.3-0.7-1-0.4-1.5h0c0.3-0.5,1-0.7,1.5-0.4l1.8,1c0.5,0.3,0.7,1,0.4,1.5l0,0
		C667.5,372,666.8,372.2,666.2,371.8z"/>
	<path class="st1" d="M683.3,362.9v-2.1c0-0.6,0.5-1.1,1.1-1.1l0,0c0.6,0,1.1,0.5,1.1,1.1v2.1c0,0.6-0.5,1.1-1.1,1.1l0,0
		C683.8,364.1,683.3,363.6,683.3,362.9z"/>
	<path class="st1" d="M678.2,363.3l-0.5-2c-0.1-0.6,0.2-1.2,0.8-1.4l0,0c0.6-0.1,1.2,0.2,1.4,0.8l0.5,2c0.1,0.6-0.2,1.2-0.8,1.4l0,0
		C678.9,364.3,678.3,363.9,678.2,363.3z"/>
	<path class="st1" d="M685.9,406.6v-2.1c0-0.6,0.5-1.1,1.1-1.1l0,0c0.6,0,1.1,0.5,1.1,1.1v2.1c0,0.6-0.5,1.1-1.1,1.1l0,0
		C686.4,407.7,685.9,407.2,685.9,406.6z"/>
	<path class="st1" d="M706.1,387H704c-0.6,0-1.1-0.5-1.1-1.1v0c0-0.6,0.5-1.1,1.1-1.1h2.1c0.6,0,1.1,0.5,1.1,1.1v0
		C707.2,386.5,706.7,387,706.1,387z"/>
	<path class="st1" d="M704.7,391.8l-2-0.5c-0.6-0.1-1-0.8-0.8-1.4l0,0c0.1-0.6,0.8-1,1.4-0.8l2,0.5c0.6,0.1,1,0.8,0.8,1.4l0,0
		C705.9,391.6,705.3,392,704.7,391.8z"/>
	<path class="st1" d="M702.3,396.5l-1.7-1.2c-0.5-0.3-0.6-1.1-0.3-1.6l0,0c0.3-0.5,1.1-0.6,1.6-0.3l1.7,1.2c0.5,0.3,0.6,1.1,0.3,1.6
		l0,0C703.5,396.7,702.8,396.8,702.3,396.5z"/>
	<path class="st1" d="M699,400.6l-1.7-1.2c-0.5-0.4-0.6-1.1-0.2-1.6l0,0c0.4-0.5,1.1-0.6,1.6-0.2l1.7,1.2c0.5,0.4,0.6,1.1,0.2,1.6
		l0,0C700.2,400.8,699.5,400.9,699,400.6z"/>
	<path class="st1" d="M695.5,403.4l-1.6-1.4c-0.5-0.4-0.5-1.1-0.1-1.6l0,0c0.4-0.5,1.1-0.5,1.6-0.1l1.6,1.4c0.5,0.4,0.5,1.1,0.1,1.6
		l0,0C696.6,403.7,695.9,403.8,695.5,403.4z"/>
	<path class="st1" d="M691.1,405.8l-1.1-1.8c-0.3-0.5-0.2-1.2,0.3-1.6l0,0c0.5-0.3,1.2-0.2,1.6,0.3l1.1,1.8c0.3,0.5,0.2,1.2-0.3,1.6
		l0,0C692.1,406.5,691.4,406.3,691.1,405.8z"/>
	<path class="st1" d="M705.3,377.3l-2,0.7c-0.6,0.2-1.2-0.1-1.4-0.7l0,0c-0.2-0.6,0.1-1.2,0.7-1.4l2-0.7c0.6-0.2,1.2,0.1,1.4,0.7
		l0,0C706.2,376.4,705.9,377.1,705.3,377.3z"/>
	<path class="st1" d="M706.1,382.1H704c-0.6,0-1.1-0.5-1.1-1.1l0,0c0-0.6,0.5-1.1,1.1-1.1h2.1c0.6,0,1.1,0.5,1.1,1.1l0,0
		C707.2,381.6,706.7,382.1,706.1,382.1z"/>
	<path class="st1" d="M674.1,404.7h2.8c0,0-1.3-3-0.9-12.1c0,0,0.9-10.8,11.9-17.7c0,0,1.2-2.6-1.7-2c0,0-11.6,6-12,20.6l-1.2,0.5
		c0,0-1.9-2.1-3.3-6.8l-0.3-6.2c0,0,0.8-7,11.3-12.3l2.6-0.9h7.9c0,0,4.8,0.9,4.8,2.1c0,0-0.5,0.9-1.6,5.5c0,0-0.4-0.4-0.4,2.4
		l-0.9,5.4c0,0-1,5.7-6.8,10.4c0,0-1.9,1.1-6.1,1.3c0,0-4.6,2-0.1,2.3c0,0,4.9,0.5,9.6-3.3c0,0,4.5-5.7,5.6-10.2
		c0-0.1,0.1-0.2,0.1-0.3c1-4.6,0.9-7.5,1.4-9.6s2-3.9,2-3.9s-0.7-2.3-4.8-2.9l-3.9-0.5l-6.4-0.5c0,0-5.7,0.4-9.6,3.9
		c0,0-3.8,3.2-6.3,8.1c0,0-0.4,0.1-0.8,4.9c0,0-1.1,6.7,6.1,13.7l0.5,0.4C673.7,397.1,674.6,396.9,674.1,404.7z"/>
</g>
</svg>
