<?xml version="1.0" encoding="utf-8"?>
<!-- Generator: Adobe Illustrator 22.0.1, SVG Export Plug-In . SVG Version: 6.00 Build 0)  -->
<svg version="1.1" id="Layer_1" xmlns="http://www.w3.org/2000/svg" xmlns:xlink="http://www.w3.org/1999/xlink" x="0px" y="0px"
	 viewBox="0 0 1366 768" style="enable-background:new 0 0 1366 768;" xml:space="preserve">
<style type="text/css">
	.st0{fill:none;stroke:#000000;stroke-miterlimit:10;}
	.st1{stroke:#000000;stroke-miterlimit:10;}
	.st2{fill:none;stroke:#964B00;stroke-miterlimit:10;}
</style>
<path class="st0" d="M659.8,387h30c0,0,0.1,1.1,0.3,1.1c1.5-0.6,7.6-2.9,10.1-3.1c3.7-0.2,5.4,0,5.4,0s1.1,2.2-2.6,5.6
	c0,0-4.3,0.6-7.2,2.3c0,0-1.9,1.6-4.8,2.9h-3.4c0,0,0.2,2.6-3.8,4.3h-18.6C665.4,400.1,660.7,399.4,659.8,387z"/>
<line class="st0" x1="690.1" y1="388.1" x2="687.7" y2="395.8"/>
<path class="st1" d="M664.9,384c0,0,0.6,2.2,2.1,0c0,0,0.1-3.3,3.1-6.8c0,0,2-0.6,4.5-4.5c0-0.1,0.1-0.1,0.1-0.2v-4.6
	c0,0-0.7-1.6-1.8,0l0.1,3.6c0,0-0.5,2.5-3.2,3.3c0,0-1.9,1.6-3.9,4.3C665.9,379.1,664.9,380.7,664.9,384z"/>
<path class="st1" d="M673.6,384.2c0,0,0.4,1.7,1.5,0c0,0,0.1-2.6,2.2-5.3c0,0,1.4-0.5,3.1-3.6c0-0.1,0.1-0.1,0.1-0.2v-3.6
	c0,0-0.5-1.2-1.3,0l0,2.8c0,0-0.3,2-2.2,2.6c0,0-1.3,1.2-2.7,3.3C674.3,380.3,673.6,381.6,673.6,384.2z"/>
<path class="st1" d="M680.1,384.4c0,0,0.4,1.2,1.2,0c0,0,0.1-1.8,1.8-3.8c0,0,1.1-0.3,2.5-2.5c0,0,0.1-0.1,0.1-0.1v-2.5
	c0,0-0.4-0.9-1,0l0,2c0,0-0.3,1.4-1.8,1.8c0,0-1.1,0.9-2.2,2.4C680.6,381.6,680.1,382.5,680.1,384.4z"/>
<g>
	<polygon points="669.3,371.1 668.6,373.2 666.6,372.2 667.4,370.1 	"/>
	<ellipse transform="matrix(0.9283 -0.3718 0.3718 0.9283 -90.1926 274.6331)" cx="667.1" cy="371.2" rx="1" ry="1.2"/>
	<ellipse transform="matrix(0.9283 -0.3718 0.3718 0.9283 -89.9531 275.0319)" cx="668.3" cy="370.8" rx="1" ry="1.2"/>
</g>
<g>
	<polygon points="664.6,377.7 663.9,379.7 661.9,378.7 662.7,376.7 	"/>
	<ellipse transform="matrix(0.9283 -0.3718 0.3718 0.9283 -92.9655 273.351)" cx="662.4" cy="377.8" rx="1" ry="1.2"/>
	<ellipse transform="matrix(0.9283 -0.3718 0.3718 0.9283 -92.726 273.7498)" cx="663.6" cy="377.3" rx="1" ry="1.2"/>
</g>
<g>
	<polygon points="684.8,371.8 683,373 682.1,371 683.9,369.8 	"/>
	<ellipse transform="matrix(0.2562 -0.9666 0.9666 0.2562 149.8511 935.8513)" cx="683" cy="370.6" rx="1.2" ry="1"/>
	<ellipse transform="matrix(0.2562 -0.9666 0.9666 0.2562 150.3876 937.2504)" cx="684.2" cy="370.9" rx="1.2" ry="1"/>
</g>
<g>
	<polygon points="672.4,380.9 671.2,381.6 670.7,380.4 671.9,379.7 	"/>
	<ellipse transform="matrix(0.4822 -0.876 0.876 0.4822 14.5792 784.9233)" cx="671.3" cy="380.1" rx="0.7" ry="0.6"/>
	<ellipse transform="matrix(0.4822 -0.876 0.876 0.4822 14.7309 785.6801)" cx="672" cy="380.4" rx="0.7" ry="0.6"/>
</g>
<g>
	<polygon points="686.3,383.7 684.6,384 684.5,382.1 686.3,381.8 	"/>
	<ellipse transform="matrix(0.49 -0.8717 0.8717 0.49 16.5154 792.3263)" cx="685.4" cy="382" rx="1" ry="0.9"/>
	<ellipse transform="matrix(0.49 -0.8717 0.8717 0.49 16.2929 793.3646)" cx="686.2" cy="382.8" rx="1" ry="0.9"/>
</g>
<g>
	<path class="st2" d="M710.8,367.5h30c0,0,0.1,1.1,0.3,1.1c1.5-0.6,7.6-2.9,10.1-3.1c3.7-0.2,5.4,0,5.4,0s1.1,2.2-2.6,5.6
		c0,0-4.3,0.6-7.2,2.3c0,0-1.9,1.6-4.8,2.9h-3.4c0,0,0.2,2.6-3.8,4.3h-18.6C716.4,380.6,711.7,379.9,710.8,367.5z"/>
	<line class="st2" x1="741.2" y1="368.6" x2="738.7" y2="376.3"/>
	<g>
		<polygon class="st2" points="720.3,351.6 719.6,353.7 717.7,352.7 718.4,350.6 		"/>
		
			<ellipse transform="matrix(0.9283 -0.3718 0.3718 0.9283 -79.2858 292.2036)" class="st2" cx="718.1" cy="351.7" rx="1" ry="1.2"/>
		
			<ellipse transform="matrix(0.9283 -0.3718 0.3718 0.9283 -79.0463 292.6024)" class="st2" cx="719.3" cy="351.3" rx="1" ry="1.2"/>
	</g>
	<g>
		<polygon class="st2" points="715.6,358.2 714.9,360.2 713,359.2 713.7,357.2 		"/>
		
			<ellipse transform="matrix(0.9283 -0.3718 0.3718 0.9283 -82.0587 290.9216)" class="st2" cx="713.4" cy="358.3" rx="1" ry="1.2"/>
		
			<ellipse transform="matrix(0.9283 -0.3718 0.3718 0.9283 -81.8192 291.3204)" class="st2" cx="714.6" cy="357.8" rx="1" ry="1.2"/>
	</g>
	<g>
		<polygon class="st2" points="735.9,352.3 734.1,353.5 733.1,351.5 734.9,350.3 		"/>
		
			<ellipse transform="matrix(0.2562 -0.9666 0.9666 0.2562 206.6483 970.6645)" class="st2" cx="734.1" cy="351.1" rx="1.2" ry="1"/>
		
			<ellipse transform="matrix(0.2562 -0.9666 0.9666 0.2562 207.1848 972.0637)" class="st2" cx="735.2" cy="351.4" rx="1.2" ry="1"/>
	</g>
	<g>
		<polygon class="st2" points="723.4,361.4 722.2,362.1 721.7,360.9 722.9,360.2 		"/>
		<ellipse transform="matrix(0.4822 -0.876 0.876 0.4822 58.0792 819.5228)" class="st2" cx="722.3" cy="360.6" rx="0.7" ry="0.6"/>
		<ellipse transform="matrix(0.4822 -0.876 0.876 0.4822 58.2309 820.2795)" class="st2" cx="723" cy="360.9" rx="0.7" ry="0.6"/>
	</g>
	<g>
		<polygon class="st2" points="737.4,364.2 735.6,364.5 735.5,362.6 737.3,362.3 		"/>
		<ellipse transform="matrix(0.49 -0.8717 0.8717 0.49 59.5356 826.8569)" class="st2" cx="736.4" cy="362.5" rx="1" ry="0.9"/>
		<ellipse transform="matrix(0.49 -0.8717 0.8717 0.49 59.313 827.8952)" class="st2" cx="737.2" cy="363.3" rx="1" ry="0.9"/>
	</g>
	<g>
		<polygon class="st2" points="730.7,356.9 729.6,358.8 727.9,357.6 728.9,355.7 		"/>
		<ellipse transform="matrix(0.9753 -0.221 0.221 0.9753 -60.8141 169.8106)" class="st2" cx="728.5" cy="356.7" rx="1" ry="1.2"/>
		<ellipse transform="matrix(0.9753 -0.221 0.221 0.9753 -60.7324 170.0713)" class="st2" cx="729.7" cy="356.5" rx="1" ry="1.2"/>
	</g>
</g>
</svg>
